# xmcd
#
# Track frame offsets:
#	150
#	13463
#	27146
#	44357
#	56059
#	72247
#	86681
#	101857
#	115197
#	128680
#	143269
#	160835
#	172805
#	187617
#	200917
#	215833
#	230072
#	243399
#	256032
#	268311
#	281055
#	293236
#
# Disc length: 4093 seconds
#
# Revision: 0
# Processed by: cddbd v1.5.1PL0 Copyright (c) Steve Scherf et al.
# Submitted via: dBpowerAMP V4.0
#
DISCID=490ffb16
DTITLE=Gaúcho da Fronteira - Dose Dupla 3
DYEAR=1900
DGENRE=Country
TTITLE0=Aventuras de Coló
TTITLE1=Xote da Saudade
TTITLE2=Tão pedindo um vanerão
TTITLE3=Herói Nativo
TTITLE4=Cinco Pila
TTITLE5=Décima do Bailongo
TTITLE6=Coração de Luto
TTITLE7=Um Gaúcho no Rock In Rio
TTITLE8=Sonho e Realidade
TTITLE9=Parei, Provei, Gostei
TTITLE10=Criança Esperança
TTITLE11=Casal Perfeito
TTITLE12=Bamo Fazê Diferente
TTITLE13=Pêlo Duro
TTITLE14=Correteando a Tristeza
TTITLE15=La Porteña
TTITLE16=A Veneta da Marieta
TTITLE17=Canto de Pátria e Querência
TTITLE18=Coração Bagual
TTITLE19=Paleteando Morro Velho
TTITLE20=Vaquinha Preta
TTITLE21=Xote da Bossoroca
EXTD=
EXTT0=
EXTT1=
EXTT2=
EXTT3=
EXTT4=
EXTT5=
EXTT6=
EXTT7=
EXTT8=
EXTT9=
EXTT10=
EXTT11=
EXTT12=
EXTT13=
EXTT14=
EXTT15=
EXTT16=
EXTT17=
EXTT18=
EXTT19=
EXTT20=
EXTT21=
PLAYORDER=
